<svg width="161" height="221" viewBox="0 0 161 221" fill="none" xmlns="http://www.w3.org/2000/svg">
<path fill-rule="evenodd" clip-rule="evenodd" d="M119.155 19.8223L31.2801 0.384543C25.1867 -0.963301 19.0773 2.5843 17.2276 8.54454L9.95643 31.9738C8.8872 35.4191 12.5658 38.4079 15.7193 36.656L19.9425 34.3097C25.3587 31.3007 32.1752 32.9099 35.6739 38.0234L39.2634 43.2697C41.0744 45.9164 44.6466 46.6712 47.3734 44.9831L54.3515 40.6634C59.5574 37.4407 66.3547 38.654 70.1241 43.4788L72.7946 46.8971C74.6336 49.251 77.924 49.8937 80.5136 48.4047L87.1634 44.5811C92.2593 41.6509 98.7276 42.8436 102.443 47.3984L105.526 51.1773C108.306 54.5844 113.685 53.9433 115.586 49.9785L124.641 31.0921C126.869 26.4454 124.186 20.9353 119.155 19.8223ZM18.8399 80.4326L27.9819 47.0444C28.6222 44.706 31.628 44.0536 33.1801 45.9161L35.7843 49.0412C39.4091 53.391 45.5813 54.6151 50.5919 51.978L53.027 50.6963C57.7507 48.2102 63.5488 49.1432 67.2541 52.9857L68.2459 54.0143C71.9512 57.8568 77.7493 58.7899 82.473 56.3037L85.8904 54.5051C90.4397 52.1107 96.0089 52.8802 99.7384 56.4185L101.83 58.4031C107.5 63.7822 116.717 62.3924 120.548 55.5807L124.104 49.2588C124.638 48.3105 126.088 48.7759 125.97 49.8576L120.795 97.2972C120.6 99.0863 120.104 100.83 119.329 102.454L113.121 115.462C111.066 119.766 110 124.475 110 129.245V203.208C110 206.131 112.369 208.5 115.292 208.5C116.992 208.5 118.589 207.683 119.584 206.303L127.971 194.669C131.208 190.179 137.114 188.516 142.219 190.656L145.774 192.147C147.54 192.888 149.568 192.022 150.256 190.235C150.939 188.459 150.03 186.469 148.24 185.823L137.702 182.017C135.038 181.055 132.086 181.321 129.637 182.743L124.009 186.011C121.342 187.56 118 185.636 118 182.552V130.199C118 126.773 118.734 123.386 120.151 120.267L126.348 106.634C127.442 104.228 128.131 101.658 128.387 99.0275L132.891 52.7527C133.002 51.6202 134.616 51.5219 134.863 52.6327L143.937 93.4654C144.31 95.1442 144.951 96.7518 145.836 98.2264L153.489 110.981C155.467 114.279 156.624 118.003 156.863 121.841L160.835 185.797C161.237 192.273 157.69 198.35 151.853 201.183L116.057 218.56C112.184 220.44 107.715 220.68 103.663 219.224L11.0683 185.975C4.48319 183.61 0.198311 177.241 0.489593 170.25L3.11032 107.353C3.36092 101.338 5.86246 95.6376 10.1189 91.3811L15.7512 85.7488C17.225 84.2751 18.2895 82.4428 18.8399 80.4326ZM76.6894 155.604C77.1557 169.735 66.1517 179.843 52.1112 178.181C38.0707 176.519 26.3106 163.717 25.8443 149.586C25.378 135.455 36.3821 125.347 50.4226 127.009C64.463 128.671 76.2231 141.473 76.6894 155.604ZM56.6947 142.496C60.7197 144.382 63.6811 146.742 63.2607 150.388C62.9362 153.04 61.449 154.144 59.3574 154.307C62.2681 156.151 63.7609 158.527 62.5444 162.141C61.0335 166.675 57.0158 166.525 51.6014 164.821L50.5349 169.683L47.3789 168.531L48.4454 163.669C48.1017 163.538 47.7399 163.411 47.3691 163.28C46.8735 163.106 46.3614 162.926 45.8531 162.723L44.7867 167.585L41.6364 166.435L42.7029 161.573L36.4189 159.145L37.7362 155.789C37.7362 155.789 40.1085 156.711 40.0699 156.669C40.9482 156.986 41.3379 156.497 41.4877 156.137L43.195 148.342L44.4462 142.808C44.4771 142.195 44.212 141.348 42.9268 140.855C43.0102 140.821 40.6161 140.011 40.6161 140.011L41.3282 136.753L47.7959 139.113L48.8406 134.351L52.0989 135.54L51.0543 140.302C51.6864 140.516 52.3053 140.748 52.9312 140.982L52.9324 140.983L52.9398 140.986L52.9483 140.989L52.958 140.992C53.155 141.066 53.3528 141.14 53.5519 141.214L54.5965 136.452L57.7668 137.609L56.6947 142.496ZM48.8181 149.298L48.6596 149.233L49.952 143.391C50.1327 143.458 50.3632 143.538 50.63 143.63C52.8886 144.407 57.7496 146.08 57.0781 149.158C56.3528 152.394 50.7184 150.079 48.8181 149.298ZM46.8149 158.871L46.8176 158.872C49.1583 159.827 55.8005 162.539 56.48 159.322C57.1939 156.232 51.2434 154.127 48.5793 153.185C48.2874 153.082 48.0346 152.993 47.8348 152.917L46.5423 158.76L46.6902 158.82L46.8149 158.871Z" fill="#F7931A"/>
</svg>
